# xmcd
#
# Track frame offsets: 
#        150
#        15182
#        32114
#        51076
#        65319
#        83573
#        105252
#        126419
#        146357
#        164020
#        185546
#        216048
#        229001
#
# Disc length: 3258 seconds
#
# Revision: 0
# Processed by: cddbd v1.5.2PL0 Copyright (c) Steve Scherf et al.
# Submitted via: ExactAudioCopy v0.99pb5
#
DISCID=a30cb80d
DTITLE=Stove - Stove The BLuegrass Band of Hokaido Japan
DYEAR=2006
DGENRE=Bluegrass
TTITLE0=I am a Stag beetle
TTITLE1=Mountains, Rivers, Grasses and Trees
TTITLE2=Town that passes
TTITLE3=Mio-chan, who, changes her school
TTITLE4=Flower
TTITLE5=Waltz of Forest
TTITLE6=The valley of Yachibuki
TTITLE7=Rambling Boy
TTITLE8=It snows
TTITLE9=Whiskey Song
TTITLE10=Homecoming
TTITLE11=Quick Waltz
TTITLE12=Bon-flowers for the Grave
EXTD=
EXTT0=
EXTT1=
EXTT2=
EXTT3=
EXTT4=
EXTT5=
EXTT6=
EXTT7=
EXTT8=
EXTT9=
EXTT10=
EXTT11=
EXTT12=
PLAYORDER=
